<?xml version="1.0" encoding="UTF-8" standalone="no"?>
<!-- Created with Inkscape (http://www.inkscape.org/) -->

<svg
   xmlns:dc="http://purl.org/dc/elements/1.1/"
   xmlns:cc="http://creativecommons.org/ns#"
   xmlns:rdf="http://www.w3.org/1999/02/22-rdf-syntax-ns#"
   xmlns:svg="http://www.w3.org/2000/svg"
   xmlns="http://www.w3.org/2000/svg"
   xmlns:sodipodi="http://sodipodi.sourceforge.net/DTD/sodipodi-0.dtd"
   xmlns:inkscape="http://www.inkscape.org/namespaces/inkscape"
   width="21mm"
   height="28mm"
   viewBox="0 0 21 28"
   version="1.1"
   id="svg8"
   inkscape:version="0.92.4 (5da689c313, 2019-01-14)"
   sodipodi:docname="1p.svg">
  <defs
     id="defs2">
    <inkscape:perspective
       sodipodi:type="inkscape:persp3d"
       inkscape:vp_x="0 : 148.49999 : 1"
       inkscape:vp_y="0 : 999.99994 : 0"
       inkscape:vp_z="210.00001 : 148.49999 : 1"
       inkscape:persp3d-origin="105 : 98.999994 : 1"
       id="perspective4518" />
  </defs>
  <sodipodi:namedview
     id="base"
     pagecolor="#ffffff"
     bordercolor="#666666"
     borderopacity="1.0"
     inkscape:pageopacity="0.0"
     inkscape:pageshadow="2"
     inkscape:zoom="7.9195959"
     inkscape:cx="30.40104"
     inkscape:cy="50.975375"
     inkscape:document-units="mm"
     inkscape:current-layer="layer1"
     showgrid="false"
     inkscape:window-width="1366"
     inkscape:window-height="705"
     inkscape:window-x="-8"
     inkscape:window-y="-8"
     inkscape:window-maximized="1"
     fit-margin-top="0"
     fit-margin-left="0"
     fit-margin-right="0"
     fit-margin-bottom="0"
     inkscape:snap-object-midpoints="true"
     inkscape:snap-smooth-nodes="true"
     inkscape:snap-others="true"
     showguides="true"
     inkscape:guide-bbox="true"
     inkscape:snap-center="false"
     inkscape:snap-to-guides="false"
     inkscape:snap-intersection-paths="true"
     inkscape:object-nodes="false">
    <sodipodi:guide
       position="10.5,13.999999"
       orientation="1,0"
       id="guide2321"
       inkscape:locked="false" />
    <sodipodi:guide
       position="7.656845,14"
       orientation="0,1"
       id="guide2323"
       inkscape:locked="false"
       inkscape:label=""
       inkscape:color="rgb(0,0,255)" />
    <sodipodi:guide
       position="5.9999999,11.415313"
       orientation="1,0"
       id="guide5475"
       inkscape:locked="false"
       inkscape:label=""
       inkscape:color="rgb(0,0,255)" />
    <sodipodi:guide
       position="7.6568451,20.541"
       orientation="0,1"
       id="guide5477"
       inkscape:locked="false"
       inkscape:label=""
       inkscape:color="rgb(0,0,255)" />
    <sodipodi:guide
       position="7.6568449,7.4586238"
       orientation="0,1"
       id="guide5479"
       inkscape:locked="false" />
    <sodipodi:guide
       position="15,25.371651"
       orientation="1,0"
       id="guide5537"
       inkscape:locked="false"
       inkscape:label=""
       inkscape:color="rgb(0,0,255)" />
  </sodipodi:namedview>
  <metadata
     id="metadata5">
    <rdf:RDF>
      <cc:Work
         rdf:about="">
        <dc:format>image/svg+xml</dc:format>
        <dc:type
           rdf:resource="http://purl.org/dc/dcmitype/StillImage" />
        <dc:title />
      </cc:Work>
    </rdf:RDF>
  </metadata>
  <g
     inkscape:label="Layer 1"
     inkscape:groupmode="layer"
     id="layer1"
     transform="translate(-41.194046,-18.272421)">
    <rect
       style="fill:#ffffe9;fill-opacity:1;stroke:#000000;stroke-width:1;stroke-linecap:butt;stroke-linejoin:round;stroke-miterlimit:4;stroke-dasharray:none;stroke-opacity:1;paint-order:markers stroke fill"
       id="rect4534"
       width="20"
       height="27"
       x="41.694046"
       y="18.772421"
       rx="3.0000045"
       ry="3.0000045" />
    <path
       style="fill:none;fill-opacity:1;stroke:#000000;stroke-width:1791.22375488;stroke-miterlimit:4;stroke-dasharray:none;stroke-opacity:1;paint-order:markers stroke fill"
       id="path6932"
       sodipodi:type="arc"
       sodipodi:cx="51.978901"
       sodipodi:cy="-13160.782"
       sodipodi:rx="26246.482"
       sodipodi:ry="26246.482"
       sodipodi:start="0"
       sodipodi:end="3.1415927"
       d="M 26298.461,-13160.782 A 26246.482,26246.482 0 0 1 13175.22,9569.3385 a 26246.482,26246.482 0 0 1 -26246.483,-6e-4 26246.482,26246.482 0 0 1 -13123.241,-22730.1209 l 26246.482901,0 z"
       transform="scale(1,-1)" />
    <path
       style="fill:none;fill-opacity:1;stroke:#000000;stroke-width:0.29965854;stroke-miterlimit:4;stroke-dasharray:none;stroke-opacity:1;paint-order:markers stroke fill"
       id="path6934"
       sodipodi:type="arc"
       sodipodi:cx="51.694046"
       sodipodi:cy="35.870564"
       sodipodi:rx="3.5981429"
       sodipodi:ry="3.5981429"
       sodipodi:start="0"
       sodipodi:end="3.1415927"
       d="m 55.292189,35.870564 a 3.5981429,3.5981429 0 0 1 -1.799072,3.116083 3.5981429,3.5981429 0 0 1 -3.598143,0 3.5981429,3.5981429 0 0 1 -1.799071,-3.116084"
       sodipodi:open="true" />
    <path
       style="fill:none;fill-opacity:1;stroke:#000000;stroke-width:0.29965857;stroke-miterlimit:4;stroke-dasharray:none;stroke-opacity:1;paint-order:markers stroke fill"
       id="path6934-3"
       sodipodi:type="arc"
       sodipodi:cx="13.733144"
       sodipodi:cy="62.971401"
       sodipodi:rx="3.5981429"
       sodipodi:ry="3.5981429"
       sodipodi:start="0"
       sodipodi:end="3.1415927"
       d="m 17.331287,62.971401 a 3.5981429,3.5981429 0 0 1 -1.799072,3.116083 3.5981429,3.5981429 0 0 1 -3.598143,0 3.5981429,3.5981429 0 0 1 -1.799071,-3.116083"
       sodipodi:open="true"
       transform="rotate(-45)" />
    <path
       style="fill:none;fill-opacity:1;stroke:#000000;stroke-width:0.29965857;stroke-miterlimit:4;stroke-dasharray:none;stroke-opacity:1;paint-order:markers stroke fill"
       id="path6934-8"
       sodipodi:type="arc"
       sodipodi:cx="-32.272442"
       sodipodi:cy="55.292191"
       sodipodi:rx="3.5981429"
       sodipodi:ry="3.5981429"
       sodipodi:start="0"
       sodipodi:end="3.1415927"
       d="m -28.674299,55.292191 a 3.5981429,3.5981429 0 0 1 -1.799071,3.116083 3.5981429,3.5981429 0 0 1 -3.598143,0 3.5981429,3.5981429 0 0 1 -1.799072,-3.116084"
       sodipodi:open="true"
       transform="rotate(-90)" />
    <path
       style="fill:none;fill-opacity:1;stroke:#000000;stroke-width:0.29965857;stroke-miterlimit:4;stroke-dasharray:none;stroke-opacity:1;paint-order:markers stroke fill"
       id="path6934-5"
       sodipodi:type="arc"
       sodipodi:cx="-59.37326"
       sodipodi:cy="17.331306"
       sodipodi:rx="3.5981429"
       sodipodi:ry="3.5981429"
       sodipodi:start="0"
       sodipodi:end="3.1415927"
       d="m -55.775118,17.331306 a 3.5981429,3.5981429 0 0 1 -1.799071,3.116084 3.5981429,3.5981429 0 0 1 -3.598143,0 3.5981429,3.5981429 0 0 1 -1.799071,-3.116084"
       sodipodi:open="true"
       transform="rotate(-135)" />
    <path
       style="fill:none;fill-opacity:1;stroke:#000000;stroke-width:0.29965857;stroke-miterlimit:4;stroke-dasharray:none;stroke-opacity:1;paint-order:markers stroke fill"
       id="path6934-7"
       sodipodi:type="arc"
       sodipodi:cx="-51.694069"
       sodipodi:cy="-28.674299"
       sodipodi:rx="3.5981429"
       sodipodi:ry="3.5981429"
       sodipodi:start="0"
       sodipodi:end="3.1415927"
       d="m -48.095926,-28.674299 a 3.5981429,3.5981429 0 0 1 -1.799072,3.116083 3.5981429,3.5981429 0 0 1 -3.598142,0 3.5981429,3.5981429 0 0 1 -1.799072,-3.116083"
       sodipodi:open="true"
       transform="scale(-1)" />
    <path
       style="fill:none;fill-opacity:1;stroke:#000000;stroke-width:0.29965857;stroke-miterlimit:4;stroke-dasharray:none;stroke-opacity:1;paint-order:markers stroke fill"
       id="path6934-88"
       sodipodi:type="arc"
       sodipodi:cx="-13.733088"
       sodipodi:cy="-55.775112"
       sodipodi:rx="3.5981429"
       sodipodi:ry="3.5981429"
       sodipodi:start="0"
       sodipodi:end="3.1415927"
       d="m -10.134945,-55.775112 a 3.5981429,3.5981429 0 0 1 -1.799071,3.116083 3.5981429,3.5981429 0 0 1 -3.598143,0 3.5981429,3.5981429 0 0 1 -1.799071,-3.116083"
       sodipodi:open="true"
       transform="rotate(135)" />
    <path
       style="fill:none;fill-opacity:1;stroke:#000000;stroke-width:0.29965857;stroke-miterlimit:4;stroke-dasharray:none;stroke-opacity:1;paint-order:markers stroke fill"
       id="path6934-38"
       sodipodi:type="arc"
       sodipodi:cx="32.272499"
       sodipodi:cy="-48.095901"
       sodipodi:rx="3.5981429"
       sodipodi:ry="3.5981429"
       sodipodi:start="0"
       sodipodi:end="3.1415927"
       d="m 35.870642,-48.095901 a 3.5981429,3.5981429 0 0 1 -1.799072,3.116083 3.5981429,3.5981429 0 0 1 -3.598142,0 3.5981429,3.5981429 0 0 1 -1.799072,-3.116084"
       sodipodi:open="true"
       transform="rotate(90)" />
    <path
       style="fill:none;fill-opacity:1;stroke:#000000;stroke-width:0.29965857;stroke-miterlimit:4;stroke-dasharray:none;stroke-opacity:1;paint-order:markers stroke fill"
       id="path6934-6"
       sodipodi:type="arc"
       sodipodi:cx="59.373257"
       sodipodi:cy="-10.135019"
       sodipodi:rx="3.5981429"
       sodipodi:ry="3.5981429"
       sodipodi:start="0"
       sodipodi:end="3.1415927"
       d="m 62.9714,-10.135019 a 3.5981429,3.5981429 0 0 1 -1.799072,3.1160829 3.5981429,3.5981429 0 0 1 -3.598143,-10e-8 3.5981429,3.5981429 0 0 1 -1.799071,-3.1160828"
       sodipodi:open="true"
       transform="rotate(45)" />
  </g>
  <g
     inkscape:groupmode="layer"
     id="layer2"
     inkscape:label="Etching">
    <g
       inkscape:tile-y0="4.9691945"
       inkscape:tile-x0="2.0257138"
       id="use2294"
       transform="matrix(1.3669566,0,0,1.3669566,-60.163517,-30.115)"
       style="fill:#e50000;stroke:#d40000;stroke-opacity:1">
      <circle
         style="fill:none;fill-opacity:1;stroke:#d40000;stroke-width:0.67000002;stroke-linecap:butt;stroke-linejoin:round;stroke-miterlimit:4;stroke-dasharray:none;stroke-opacity:1;paint-order:markers stroke fill"
         id="circle5443"
         cx="51.694046"
         cy="32.272423"
         r="2.2496862" />
      <circle
         style="fill:none;fill-opacity:1;stroke:#d40000;stroke-width:0.40000001;stroke-linecap:butt;stroke-linejoin:round;stroke-miterlimit:4;stroke-dasharray:none;stroke-opacity:1;paint-order:markers stroke fill"
         id="circle5445"
         cx="51.694046"
         cy="32.272423"
         r="0.66145831" />
      <circle
         style="fill:none;fill-opacity:1;stroke:#d40000;stroke-width:0.22878113;stroke-linecap:butt;stroke-linejoin:round;stroke-miterlimit:4;stroke-dasharray:none;stroke-opacity:1;paint-order:markers stroke fill"
         id="circle5447"
         cx="51.694046"
         cy="31.05974"
         r="0.50466192" />
      <circle
         style="fill:none;fill-opacity:1;stroke:#d40000;stroke-width:0.22878113;stroke-linecap:butt;stroke-linejoin:round;stroke-miterlimit:4;stroke-dasharray:none;stroke-opacity:1;paint-order:markers stroke fill"
         id="circle5449"
         cx="52.847374"
         cy="31.897684"
         r="0.50466192" />
      <circle
         style="fill:none;fill-opacity:1;stroke:#d40000;stroke-width:0.22878113;stroke-linecap:butt;stroke-linejoin:round;stroke-miterlimit:4;stroke-dasharray:none;stroke-opacity:1;paint-order:markers stroke fill"
         id="circle5451"
         cx="52.406841"
         cy="33.253502"
         r="0.50466192" />
      <circle
         style="fill:none;fill-opacity:1;stroke:#d40000;stroke-width:0.22878113;stroke-linecap:butt;stroke-linejoin:round;stroke-miterlimit:4;stroke-dasharray:none;stroke-opacity:1;paint-order:markers stroke fill"
         id="circle5453"
         cx="50.981251"
         cy="33.253502"
         r="0.50466192" />
      <circle
         style="fill:none;fill-opacity:1;stroke:#d40000;stroke-width:0.22878113;stroke-linecap:butt;stroke-linejoin:round;stroke-miterlimit:4;stroke-dasharray:none;stroke-opacity:1;paint-order:markers stroke fill"
         id="circle5455"
         cx="50.540718"
         cy="31.897684"
         r="0.50466192" />
    </g>
    <circle
       style="fill:none;fill-opacity:1;stroke:#000000;stroke-width:1;stroke-miterlimit:4;stroke-dasharray:none;stroke-opacity:1;paint-order:markers stroke fill"
       id="path6888"
       r="7.7373509"
       cy="13.999999"
       cx="10.5" />
    <path
       style="fill:none;stroke:#d40000;stroke-width:0.26499999;stroke-linecap:butt;stroke-linejoin:miter;stroke-miterlimit:4;stroke-dasharray:none;stroke-opacity:1"
       d="m 7.318019,17.181981 3e-7,-6.363962 h 6.3639617 v 6.363961 l -6.363962,1e-6"
       id="path6890-0"
       inkscape:connector-curvature="0" />
    <path
       style="fill:none;stroke:#d40000;stroke-width:0.265;stroke-linecap:butt;stroke-linejoin:miter;stroke-opacity:1;stroke-miterlimit:4;stroke-dasharray:none"
       d="M 5.9999996,14 10.5,9.4999994 15,14 10.5,18.5 5.9999996,14"
       id="path6890"
       inkscape:connector-curvature="0" />
    <circle
       style="fill:none;fill-opacity:1;stroke:#000000;stroke-width:1;stroke-miterlimit:4;stroke-dasharray:none;stroke-opacity:1;paint-order:markers stroke fill"
       id="path6886"
       cx="-2.4748738"
       cy="17.324116"
       r="4.5000005"
       transform="rotate(-45)" />
    <path
       style="fill:none;stroke:#000000;stroke-width:0.26458332px;stroke-linecap:butt;stroke-linejoin:miter;stroke-opacity:1"
       d="m 3.3516198,16.960955 c 0,0 2.2821094,-2.971805 2.9909224,-4.683031 0.7088132,-1.711226 1.1965018,-5.4263052 1.1965018,-5.4263052 0,0 2.971806,2.2821094 4.683032,2.9909226 1.711227,0.7088136 5.426304,1.1965016 5.426304,1.1965016 0,0 -2.282108,2.971805 -2.990921,4.683032 -0.708814,1.711226 -1.196503,5.426304 -1.196503,5.426304 0,0 -2.971805,-2.282107 -4.6830315,-2.99092 C 7.0666982,17.448645 3.3516198,16.960955 3.3516198,16.960955 Z"
       id="path6911"
       inkscape:connector-curvature="0"
       sodipodi:nodetypes="cscscscsc" />
    <path
       style="fill:none;stroke:#000000;stroke-width:0.26458332px;stroke-linecap:butt;stroke-linejoin:miter;stroke-opacity:1"
       d="m 7.5390439,21.14838 c 0,0 -0.4876882,-3.715078 -1.1965015,-5.426305 -0.708813,-1.711226 -2.9909229,-4.683032 -2.9909229,-4.683032 0,0 3.7150793,-0.487689 5.4263052,-1.1965015 1.7112263,-0.7088139 4.6830313,-2.9909229 4.6830313,-2.9909229 0,0 0.487689,3.7150784 1.196502,5.4263054 0.708814,1.711226 2.990922,4.683032 2.990922,4.683032 0,0 -3.715076,0.48769 -5.426303,1.196502 -1.711227,0.708814 -4.6830331,2.990922 -4.6830331,2.990922 z"
       id="path6911-5"
       inkscape:connector-curvature="0"
       sodipodi:nodetypes="cscscscsc" />
  </g>
</svg>
