<svg xmlns="http://www.w3.org/2000/svg" width="21mm" height="28mm" viewBox="0 0 21 28"><g transform="translate(-41.194 -18.272)"><rect style="fill:#ffffe9;fill-opacity:1;stroke:#000;stroke-width:1;stroke-linecap:butt;stroke-linejoin:round;stroke-miterlimit:4;stroke-dasharray:none;stroke-opacity:1;paint-order:markers stroke fill" width="20" height="27" x="41.694" y="18.772" rx="3" ry="3"/><path style="fill:none;fill-opacity:1;stroke:#000;stroke-width:1791.22375488;stroke-miterlimit:4;stroke-dasharray:none;stroke-opacity:1;paint-order:markers stroke fill" d="M26298.461-13160.782A26246.482 26246.482 0 0 1 13175.22 9569.338a26246.482 26246.482 0 0 1-26246.483 0 26246.482 26246.482 0 0 1-13123.241-22730.121H51.979z" transform="scale(1 -1)"/><path style="fill:none;fill-opacity:1;stroke:#000;stroke-width:.29965854;stroke-miterlimit:4;stroke-dasharray:none;stroke-opacity:1;paint-order:markers stroke fill" d="M55.292 35.87a3.598 3.598 0 0 1-1.799 3.117 3.598 3.598 0 0 1-3.598 0 3.598 3.598 0 0 1-1.8-3.116"/><path style="fill:none;fill-opacity:1;stroke:#000;stroke-width:.29965857;stroke-miterlimit:4;stroke-dasharray:none;stroke-opacity:1;paint-order:markers stroke fill" d="M17.331 62.971a3.598 3.598 0 0 1-1.799 3.116 3.598 3.598 0 0 1-3.598 0 3.598 3.598 0 0 1-1.799-3.116" transform="rotate(-45)"/><path style="fill:none;fill-opacity:1;stroke:#000;stroke-width:.29965857;stroke-miterlimit:4;stroke-dasharray:none;stroke-opacity:1;paint-order:markers stroke fill" d="M-28.674 55.292a3.598 3.598 0 0 1-1.8 3.116 3.598 3.598 0 0 1-3.598 0 3.598 3.598 0 0 1-1.799-3.116" transform="rotate(-90)"/><path style="fill:none;fill-opacity:1;stroke:#000;stroke-width:.29965857;stroke-miterlimit:4;stroke-dasharray:none;stroke-opacity:1;paint-order:markers stroke fill" d="M-55.775 17.331a3.598 3.598 0 0 1-1.8 3.116 3.598 3.598 0 0 1-3.597 0 3.598 3.598 0 0 1-1.8-3.116" transform="rotate(-135)"/><path style="fill:none;fill-opacity:1;stroke:#000;stroke-width:.29965857;stroke-miterlimit:4;stroke-dasharray:none;stroke-opacity:1;paint-order:markers stroke fill" d="M-48.096-28.674a3.598 3.598 0 0 1-1.799 3.116 3.598 3.598 0 0 1-3.598 0 3.598 3.598 0 0 1-1.8-3.116" transform="scale(-1)"/><path style="fill:none;fill-opacity:1;stroke:#000;stroke-width:.29965857;stroke-miterlimit:4;stroke-dasharray:none;stroke-opacity:1;paint-order:markers stroke fill" d="M-10.135-55.775a3.598 3.598 0 0 1-1.799 3.116 3.598 3.598 0 0 1-3.598 0 3.598 3.598 0 0 1-1.8-3.116" transform="rotate(135)"/><path style="fill:none;fill-opacity:1;stroke:#000;stroke-width:.29965857;stroke-miterlimit:4;stroke-dasharray:none;stroke-opacity:1;paint-order:markers stroke fill" d="M35.87-48.096a3.598 3.598 0 0 1-1.798 3.116 3.598 3.598 0 0 1-3.599 0 3.598 3.598 0 0 1-1.799-3.116" transform="rotate(90)"/><path style="fill:none;fill-opacity:1;stroke:#000;stroke-width:.29965857;stroke-miterlimit:4;stroke-dasharray:none;stroke-opacity:1;paint-order:markers stroke fill" d="M62.971-10.135a3.598 3.598 0 0 1-1.799 3.116 3.598 3.598 0 0 1-3.598 0 3.598 3.598 0 0 1-1.799-3.116" transform="rotate(45)"/></g><g transform="matrix(1.36696 0 0 1.36696 -60.164 -30.115)" style="fill:#e50000;stroke:#d40000;stroke-opacity:1"><circle style="fill:none;fill-opacity:1;stroke:#d40000;stroke-width:.67000002;stroke-linecap:butt;stroke-linejoin:round;stroke-miterlimit:4;stroke-dasharray:none;stroke-opacity:1;paint-order:markers stroke fill" cx="51.694" cy="32.272" r="2.25"/><circle style="fill:none;fill-opacity:1;stroke:#d40000;stroke-width:.40000001;stroke-linecap:butt;stroke-linejoin:round;stroke-miterlimit:4;stroke-dasharray:none;stroke-opacity:1;paint-order:markers stroke fill" cx="51.694" cy="32.272" r=".661"/><circle style="fill:none;fill-opacity:1;stroke:#d40000;stroke-width:.22878113;stroke-linecap:butt;stroke-linejoin:round;stroke-miterlimit:4;stroke-dasharray:none;stroke-opacity:1;paint-order:markers stroke fill" cx="51.694" cy="31.06" r=".505"/><circle style="fill:none;fill-opacity:1;stroke:#d40000;stroke-width:.22878113;stroke-linecap:butt;stroke-linejoin:round;stroke-miterlimit:4;stroke-dasharray:none;stroke-opacity:1;paint-order:markers stroke fill" cx="52.847" cy="31.898" r=".505"/><circle style="fill:none;fill-opacity:1;stroke:#d40000;stroke-width:.22878113;stroke-linecap:butt;stroke-linejoin:round;stroke-miterlimit:4;stroke-dasharray:none;stroke-opacity:1;paint-order:markers stroke fill" cx="52.407" cy="33.254" r=".505"/><circle style="fill:none;fill-opacity:1;stroke:#d40000;stroke-width:.22878113;stroke-linecap:butt;stroke-linejoin:round;stroke-miterlimit:4;stroke-dasharray:none;stroke-opacity:1;paint-order:markers stroke fill" cx="50.981" cy="33.254" r=".505"/><circle style="fill:none;fill-opacity:1;stroke:#d40000;stroke-width:.22878113;stroke-linecap:butt;stroke-linejoin:round;stroke-miterlimit:4;stroke-dasharray:none;stroke-opacity:1;paint-order:markers stroke fill" cx="50.541" cy="31.898" r=".505"/></g><circle style="fill:none;fill-opacity:1;stroke:#000;stroke-width:1;stroke-miterlimit:4;stroke-dasharray:none;stroke-opacity:1;paint-order:markers stroke fill" r="7.737" cy="14" cx="10.5"/><path style="fill:none;stroke:#d40000;stroke-width:.26499999;stroke-linecap:butt;stroke-linejoin:miter;stroke-miterlimit:4;stroke-dasharray:none;stroke-opacity:1" d="M7.318 17.182v-6.364h6.364v6.364H7.318"/><path style="fill:none;stroke:#d40000;stroke-width:.265;stroke-linecap:butt;stroke-linejoin:miter;stroke-opacity:1;stroke-miterlimit:4;stroke-dasharray:none" d="m6 14 4.5-4.5L15 14l-4.5 4.5L6 14"/><circle style="fill:none;fill-opacity:1;stroke:#000;stroke-width:1;stroke-miterlimit:4;stroke-dasharray:none;stroke-opacity:1;paint-order:markers stroke fill" cx="-2.475" cy="17.324" r="4.5" transform="rotate(-45)"/><path style="fill:none;stroke:#000;stroke-width:.26458332px;stroke-linecap:butt;stroke-linejoin:miter;stroke-opacity:1" d="M3.352 16.961s2.282-2.972 2.99-4.683c.71-1.711 1.197-5.426 1.197-5.426s2.972 2.282 4.683 2.99c1.711.71 5.426 1.197 5.426 1.197s-2.282 2.972-2.99 4.683c-.71 1.711-1.197 5.426-1.197 5.426s-2.972-2.282-4.683-2.99c-1.711-.71-5.426-1.197-5.426-1.197z"/><path style="fill:none;stroke:#000;stroke-width:.26458332px;stroke-linecap:butt;stroke-linejoin:miter;stroke-opacity:1" d="M7.539 21.148s-.488-3.715-1.196-5.426c-.71-1.711-2.991-4.683-2.991-4.683s3.715-.488 5.426-1.196c1.711-.71 4.683-2.991 4.683-2.991s.488 3.715 1.196 5.426c.71 1.711 2.991 4.683 2.991 4.683s-3.715.488-5.426 1.196c-1.711.71-4.683 2.991-4.683 2.991z"/></svg>