<svg xmlns="http://www.w3.org/2000/svg" width="21mm" height="28mm" viewBox="0 0 21 28"><defs><clipPath clipPathUnits="userSpaceOnUse" id="a"/></defs><g transform="translate(-41.194 -18.272)"><rect style="fill:#ffffe9;fill-opacity:1;stroke:#000;stroke-width:1;stroke-linecap:butt;stroke-linejoin:round;stroke-miterlimit:4;stroke-dasharray:none;stroke-opacity:1;paint-order:markers stroke fill" width="20" height="27" x="41.694" y="18.772" rx="3" ry="3"/><g transform="translate(1.553 22.353)"><circle r="4.02" cy="6.992" cx="45.417" style="fill:green;fill-opacity:1;stroke:green;stroke-width:.33350798;stroke-linecap:round;stroke-miterlimit:4;stroke-dasharray:none;stroke-opacity:1;paint-order:normal"/><path d="M49.437 6.992H42.2M45.819 6.992l-1.81-3.136M47.028 6.992l-1.81-3.136M48.212 6.992l-1.81-3.136M44.008 10.128l1.81-3.136M45.217 10.128l1.811-3.136M46.402 10.128l1.81-3.136M44.454 6.992 43.07 4.595M43.265 6.992l-.754-1.307M44.454 6.992 43.07 9.389M43.265 6.992l-.754 1.307" style="fill:none;fill-opacity:1;stroke:#ffffe9;stroke-width:.24694444;stroke-linecap:round;stroke-miterlimit:4;stroke-dasharray:none;stroke-opacity:1;paint-order:normal"/></g><g transform="scale(1 -1) rotate(-30 -11.397 -11.6)"><circle r="4.02" cy="6.992" cx="45.417" style="fill:green;fill-opacity:1;stroke:green;stroke-width:.33350798;stroke-linecap:round;stroke-miterlimit:4;stroke-dasharray:none;stroke-opacity:1;paint-order:normal"/><path d="M49.437 6.992H42.2M45.819 6.992l-1.81-3.136M47.028 6.992l-1.81-3.136M48.212 6.992l-1.81-3.136M44.008 10.128l1.81-3.136M45.217 10.128l1.811-3.136M46.402 10.128l1.81-3.136M44.454 6.992 43.07 4.595M43.265 6.992l-.754-1.307M44.454 6.992 43.07 9.389M43.265 6.992l-.754 1.307" style="fill:none;fill-opacity:1;stroke:#ffffe9;stroke-width:.24694444;stroke-linecap:round;stroke-miterlimit:4;stroke-dasharray:none;stroke-opacity:1;paint-order:normal"/></g><g style="stroke:#00a;stroke-opacity:1" clip-path="url(#a)"><g style="stroke:#00a;stroke-opacity:1"><g style="stroke:#00a;stroke-opacity:1"><path d="m42.517 40.98 17.198-4.607" style="fill:none;stroke:#00a;stroke-width:.26458332px;stroke-linecap:butt;stroke-linejoin:miter;stroke-opacity:1"/><path d="m58.392 40.98 1.323-.354M42.517 38.335l17.198-4.608M42.517 37.012l17.198-4.608M42.517 35.69l17.198-4.61M58.392 40.98l-15.875-4.253M54.423 40.98l-11.906-3.19M62.36 39.658 42.518 34.34M62.36 38.335l-19.843-5.317M62.36 37.012 42.613 31.72M62.36 35.69l-19.843-5.318" style="fill:none;fill-opacity:1;stroke:#00a;stroke-width:.26458332;stroke-miterlimit:4;stroke-dasharray:none;stroke-opacity:1;paint-order:normal"/></g><path style="fill:none;stroke:#00a;stroke-width:.26458332px;stroke-linecap:butt;stroke-linejoin:miter;stroke-opacity:1" d="m46.486 40.98 13.229-3.544"/><path style="fill:none;fill-opacity:1;stroke:#00a;stroke-width:.26458333;stroke-miterlimit:4;stroke-dasharray:none;stroke-opacity:1;paint-order:normal" d="m50.454 40.98 9.26-2.48"/><path style="fill:none;fill-opacity:1;stroke:#00a;stroke-width:.26458332;stroke-miterlimit:4;stroke-dasharray:none;stroke-opacity:1;paint-order:normal" d="m42.517 39.658 17.198-4.608M50.454 40.98l-7.937-2.126M58.392 39.658l-15.875-4.254"/></g><path d="m54.423 40.98 5.292-1.417" style="fill:none;fill-opacity:1;stroke:#00a;stroke-width:.26458332;stroke-miterlimit:4;stroke-dasharray:none;stroke-opacity:1;paint-order:normal"/></g><g transform="rotate(180 50.918 18.168)"><circle r="4.02" cy="6.992" cx="45.417" style="fill:green;fill-opacity:1;stroke:green;stroke-width:.33350798;stroke-linecap:round;stroke-miterlimit:4;stroke-dasharray:none;stroke-opacity:1;paint-order:normal"/><path d="M49.437 6.992H42.2M45.819 6.992l-1.81-3.136M47.028 6.992l-1.81-3.136M48.212 6.992l-1.81-3.136M44.008 10.128l1.81-3.136M45.217 10.128l1.811-3.136M46.402 10.128l1.81-3.136M44.454 6.992 43.07 4.595M43.265 6.992l-.754-1.307M44.454 6.992 43.07 9.389M43.265 6.992l-.754 1.307" style="fill:none;fill-opacity:1;stroke:#ffffe9;stroke-width:.24694444;stroke-linecap:round;stroke-miterlimit:4;stroke-dasharray:none;stroke-opacity:1;paint-order:normal"/></g><path transform="scale(-1)" d="M-43.694-39.876a8 7 0 0 1-4 6.062 8 7 0 0 1-8 0 8 7 0 0 1-4-6.062" style="fill:none;fill-opacity:1;stroke:#00a;stroke-width:.600075;stroke-miterlimit:4;stroke-dasharray:none;stroke-opacity:1;paint-order:normal"/><path d="M43.427 39.876H59.96" style="fill:none;stroke:#00a;stroke-width:.60965788;stroke-linecap:butt;stroke-linejoin:miter;stroke-miterlimit:4;stroke-dasharray:none;stroke-opacity:1"/><path d="M53.756 40.516v3.05l-.954.256M53.702 43.58l-.741-.427M53.686 43.572l-.364.63" style="fill:none;fill-opacity:1;stroke:#d40000;stroke-width:.26458332;stroke-miterlimit:4;stroke-dasharray:none;stroke-opacity:1;paint-order:normal" transform="translate(-2.946)"/><path d="M53.756 40.516v3.05l-.954.256M53.702 43.58l-.741-.427M53.686 43.572l-.364.63" style="fill:none;fill-opacity:1;stroke:#d40000;stroke-width:.26458332;stroke-miterlimit:4;stroke-dasharray:none;stroke-opacity:1;paint-order:normal"/><path style="fill:#ffffe9;fill-opacity:1;stroke:#00a;stroke-width:.26458332;stroke-miterlimit:4;stroke-dasharray:none;stroke-opacity:1;paint-order:normal" d="m47.316 40.87 3.8-6.58 3.8 6.58z" transform="matrix(1 0 0 .83841 0 6.25)"/><ellipse style="fill:#ffffe9;fill-opacity:1;stroke:#00a;stroke-width:.26458332;stroke-miterlimit:4;stroke-dasharray:none;stroke-opacity:1;paint-order:normal" cx="59.929" cy="14.152" rx="2.076" ry="1.437" transform="rotate(20.477)"/><path style="fill:#ffffe9;fill-opacity:1;stroke:#00a;stroke-width:.26458332;stroke-miterlimit:4;stroke-dasharray:none;stroke-opacity:1;paint-order:normal" d="m52.439 35.676-1.323 1.678"/><path style="fill:#ffffe9;fill-opacity:1;stroke:none;stroke-width:.26458332;stroke-miterlimit:4;stroke-dasharray:none;stroke-opacity:1;paint-order:normal" d="m52.569 35.275-1.252 1.618-.223-2.9z"/><ellipse style="fill:#ffffe9;fill-opacity:1;stroke:none;stroke-width:.26458332;stroke-miterlimit:4;stroke-dasharray:none;stroke-opacity:1;paint-order:normal" cx="51.107" cy="34.113" rx=".004" ry=".112"/><circle style="fill:#d40000;fill-opacity:1;stroke:none;stroke-width:.26458332;stroke-miterlimit:4;stroke-dasharray:none;stroke-opacity:1;paint-order:normal" cx="50.931" cy="33.949" r=".405"/><path style="fill:none;fill-opacity:1;stroke:#d40000;stroke-width:.26458332;stroke-miterlimit:4;stroke-dasharray:none;stroke-opacity:1;paint-order:normal" d="m49.32 33.342-1.426-.823"/><path style="fill:none;fill-opacity:1;stroke:#00a;stroke-width:.59972222;stroke-miterlimit:4;stroke-dasharray:none;stroke-opacity:1;paint-order:normal;stroke-linecap:round" d="m55.971 33.96 3.744-2.88"/><path style="fill:none;fill-opacity:1;stroke:#00a;stroke-width:.59972221;stroke-linecap:round;stroke-miterlimit:4;stroke-dasharray:none;stroke-opacity:1;paint-order:normal" d="m56.907 34.566 3.044-1.995M57.603 35.157s.93-1.31 2.3-1.263"/><g transform="rotate(150 48.586 17.223)"><circle r="4.02" cy="6.992" cx="45.417" style="fill:green;fill-opacity:1;stroke:green;stroke-width:.33350798;stroke-linecap:round;stroke-miterlimit:4;stroke-dasharray:none;stroke-opacity:1;paint-order:normal"/><path d="M49.437 6.992H42.2M45.819 6.992l-1.81-3.136M47.028 6.992l-1.81-3.136M48.212 6.992l-1.81-3.136M44.008 10.128l1.81-3.136M45.217 10.128l1.811-3.136M46.402 10.128l1.81-3.136M44.454 6.992 43.07 4.595M43.265 6.992l-.754-1.307M44.454 6.992 43.07 9.389M43.265 6.992l-.754 1.307" style="fill:none;fill-opacity:1;stroke:#ffffe9;stroke-width:.24694444;stroke-linecap:round;stroke-miterlimit:4;stroke-dasharray:none;stroke-opacity:1;paint-order:normal"/></g><g transform="rotate(90 40.38 18.306)"><circle r="4.02" cy="6.992" cx="45.417" style="fill:green;fill-opacity:1;stroke:green;stroke-width:.33350798;stroke-linecap:round;stroke-miterlimit:4;stroke-dasharray:none;stroke-opacity:1;paint-order:normal"/><path d="M49.437 6.992H42.2M45.819 6.992l-1.81-3.136M47.028 6.992l-1.81-3.136M48.212 6.992l-1.81-3.136M44.008 10.128l1.81-3.136M45.217 10.128l1.811-3.136M46.402 10.128l1.81-3.136M44.454 6.992 43.07 4.595M43.265 6.992l-.754-1.307M44.454 6.992 43.07 9.389M43.265 6.992l-.754 1.307" style="fill:none;fill-opacity:1;stroke:#ffffe9;stroke-width:.24694444;stroke-linecap:round;stroke-miterlimit:4;stroke-dasharray:none;stroke-opacity:1;paint-order:normal"/></g><g><circle r="1.417" cy="30.913" cx="51.694" style="fill:#ffffe9;fill-opacity:1;stroke:green;stroke-width:.29629853;stroke-linecap:round;stroke-miterlimit:4;stroke-dasharray:none;stroke-opacity:1;paint-order:normal"/><circle transform="rotate(-120)" r="1.417" cy="31.767" cx="-54.036" style="fill:#ffffe9;fill-opacity:1;stroke:green;stroke-width:.29629853;stroke-linecap:round;stroke-miterlimit:4;stroke-dasharray:none;stroke-opacity:1;paint-order:normal"/><circle r="1.417" cy="30.913" cx="48.86" style="fill:#ffffe9;fill-opacity:1;stroke:green;stroke-width:.29629853;stroke-linecap:round;stroke-miterlimit:4;stroke-dasharray:none;stroke-opacity:1;paint-order:normal"/><circle r="1.417" cy="28.458" cx="47.442" style="fill:#ffffe9;fill-opacity:1;stroke:green;stroke-width:.29629853;stroke-linecap:round;stroke-miterlimit:4;stroke-dasharray:none;stroke-opacity:1;paint-order:normal"/><circle transform="rotate(60)" r="1.417" cy="-34.221" cx="52.618" style="fill:#ffffe9;fill-opacity:1;stroke:green;stroke-width:.29629853;stroke-linecap:round;stroke-miterlimit:4;stroke-dasharray:none;stroke-opacity:1;paint-order:normal"/><circle r="1.417" cy="28.458" cx="50.277" style="fill:#ffffe9;fill-opacity:1;stroke:green;stroke-width:.29629853;stroke-linecap:round;stroke-miterlimit:4;stroke-dasharray:none;stroke-opacity:1;paint-order:normal"/><circle transform="rotate(90)" r="1.417" cy="-53.111" cx="28.458" style="fill:#ffffe9;fill-opacity:1;stroke:green;stroke-width:.29629853;stroke-linecap:round;stroke-miterlimit:4;stroke-dasharray:none;stroke-opacity:1;paint-order:normal"/><circle transform="rotate(90)" r="1.417" cy="-54.529" cx="26.003" style="fill:#ffffe9;fill-opacity:1;stroke:green;stroke-width:.29629853;stroke-linecap:round;stroke-miterlimit:4;stroke-dasharray:none;stroke-opacity:1;paint-order:normal"/><circle transform="rotate(90)" r="1.417" cy="-53.111" cx="23.549" style="fill:#ffffe9;fill-opacity:1;stroke:green;stroke-width:.29629853;stroke-linecap:round;stroke-miterlimit:4;stroke-dasharray:none;stroke-opacity:1;paint-order:normal"/><circle r="1.417" cy="26.003" cx="51.694" style="fill:#ffffe9;fill-opacity:1;stroke:green;stroke-width:.29629853;stroke-linecap:round;stroke-miterlimit:4;stroke-dasharray:none;stroke-opacity:1;paint-order:normal"/><circle r="1.417" cy="26.003" cx="48.86" style="fill:#ffffe9;fill-opacity:1;stroke:green;stroke-width:.29629853;stroke-linecap:round;stroke-miterlimit:4;stroke-dasharray:none;stroke-opacity:1;paint-order:normal"/><circle r="1.417" cy="23.549" cx="50.277" style="fill:#ffffe9;fill-opacity:1;stroke:green;stroke-width:.29629853;stroke-linecap:round;stroke-miterlimit:4;stroke-dasharray:none;stroke-opacity:1;paint-order:normal"/><circle r=".688" cy="23.549" cx="53.111" style="fill:#d40000;fill-opacity:1;stroke:none;stroke-width:.44980785;stroke-miterlimit:4;stroke-dasharray:none;stroke-opacity:1;paint-order:normal"/><circle r=".688" cy="26.003" cx="54.529" style="fill:#d40000;fill-opacity:1;stroke:none;stroke-width:.44980785;stroke-miterlimit:4;stroke-dasharray:none;stroke-opacity:1;paint-order:normal"/><circle r=".688" cy="26.003" cx="51.694" style="fill:#d40000;fill-opacity:1;stroke:none;stroke-width:.44980785;stroke-miterlimit:4;stroke-dasharray:none;stroke-opacity:1;paint-order:normal"/><circle r=".688" cy="26.003" cx="48.86" style="fill:#d40000;fill-opacity:1;stroke:none;stroke-width:.44980785;stroke-miterlimit:4;stroke-dasharray:none;stroke-opacity:1;paint-order:normal"/><circle r=".688" cy="23.549" cx="50.277" style="fill:#d40000;fill-opacity:1;stroke:none;stroke-width:.44980785;stroke-miterlimit:4;stroke-dasharray:none;stroke-opacity:1;paint-order:normal"/><circle r=".688" cy="28.458" cx="55.946" style="fill:#d40000;fill-opacity:1;stroke:none;stroke-width:.44980785;stroke-miterlimit:4;stroke-dasharray:none;stroke-opacity:1;paint-order:normal"/><circle r=".688" cy="28.458" cx="53.111" style="fill:#d40000;fill-opacity:1;stroke:none;stroke-width:.44980785;stroke-miterlimit:4;stroke-dasharray:none;stroke-opacity:1;paint-order:normal"/><circle r=".688" cy="28.458" cx="50.277" style="fill:#d40000;fill-opacity:1;stroke:none;stroke-width:.44980785;stroke-miterlimit:4;stroke-dasharray:none;stroke-opacity:1;paint-order:normal"/><circle r=".688" cy="28.458" cx="47.442" style="fill:#d40000;fill-opacity:1;stroke:none;stroke-width:.44980785;stroke-miterlimit:4;stroke-dasharray:none;stroke-opacity:1;paint-order:normal"/><circle r=".688" cy="30.913" cx="54.529" style="fill:#d40000;fill-opacity:1;stroke:none;stroke-width:.44980785;stroke-miterlimit:4;stroke-dasharray:none;stroke-opacity:1;paint-order:normal"/><circle r=".688" cy="30.913" cx="51.694" style="fill:#d40000;fill-opacity:1;stroke:none;stroke-width:.44980785;stroke-miterlimit:4;stroke-dasharray:none;stroke-opacity:1;paint-order:normal"/><circle r=".688" cy="30.913" cx="48.86" style="fill:#d40000;fill-opacity:1;stroke:none;stroke-width:.44980785;stroke-miterlimit:4;stroke-dasharray:none;stroke-opacity:1;paint-order:normal"/></g><path style="fill:none;fill-opacity:1;stroke:#d40000;stroke-width:.26458332;stroke-miterlimit:4;stroke-dasharray:none;stroke-opacity:1;paint-order:normal" d="m49.602 33.05-1.219-1.106"/></g></svg>