<svg xmlns="http://www.w3.org/2000/svg" width="21mm" height="28mm" viewBox="0 0 21 28"><g transform="translate(-41.194 -18.272)"><rect style="fill:#ffffe9;fill-opacity:1;stroke:#000;stroke-width:1;stroke-linecap:butt;stroke-linejoin:round;stroke-miterlimit:4;stroke-dasharray:none;stroke-opacity:1;paint-order:markers stroke fill" width="20" height="27" x="41.694" y="18.772" rx="3" ry="3"/><g transform="translate(-5.5)"><rect ry=".903" rx="2.12" y="33.252" x="50.694" height="11.042" width="2" style="fill:none;fill-opacity:1;stroke:green;stroke-width:.60000002;stroke-miterlimit:4;stroke-dasharray:none;stroke-opacity:1;paint-order:markers stroke fill"/><rect ry="1.737" rx="3" y="37.904" x="50.291" height="1.737" width="2.806" style="fill:#ffffe9;fill-opacity:1;stroke:green;stroke-width:1;stroke-miterlimit:4;stroke-dasharray:none;stroke-opacity:1;paint-order:markers stroke fill"/><rect ry="1.737" rx="3" y="42.904" x="50.291" height="1.737" width="2.806" style="fill:#ffffe9;fill-opacity:1;stroke:green;stroke-width:1;stroke-miterlimit:4;stroke-dasharray:none;stroke-opacity:1;paint-order:markers stroke fill"/><rect ry="1.737" rx="3" y="32.904" x="50.291" height="1.737" width="2.806" style="fill:#ffffe9;fill-opacity:1;stroke:green;stroke-width:1;stroke-miterlimit:4;stroke-dasharray:none;stroke-opacity:1;paint-order:markers stroke fill"/></g><rect style="fill:none;fill-opacity:1;stroke:green;stroke-width:.6;stroke-miterlimit:4;stroke-dasharray:none;stroke-opacity:1;paint-order:markers stroke fill" width="2" height="11.042" x="50.694" y="20.644" rx="2.12" ry=".903"/><rect style="fill:#ffffe9;fill-opacity:1;stroke:green;stroke-width:1;stroke-miterlimit:4;stroke-dasharray:none;stroke-opacity:1;paint-order:markers stroke fill" width="2.806" height="1.737" x="50.291" y="24.904" rx="3" ry="1.737"/><rect style="fill:#ffffe9;fill-opacity:1;stroke:green;stroke-width:1;stroke-miterlimit:4;stroke-dasharray:none;stroke-opacity:1;paint-order:markers stroke fill" width="2.806" height="1.737" x="50.291" y="29.904" rx="3" ry="1.737"/><rect style="fill:#ffffe9;fill-opacity:1;stroke:green;stroke-width:1;stroke-miterlimit:4;stroke-dasharray:none;stroke-opacity:1;paint-order:markers stroke fill" width="2.806" height="1.737" x="50.291" y="19.904" rx="3" ry="1.737"/><g transform="translate(5.5)"><rect ry=".903" rx="2.12" y="33.252" x="50.694" height="11.042" width="2" style="fill:none;fill-opacity:1;stroke:green;stroke-width:.60000002;stroke-miterlimit:4;stroke-dasharray:none;stroke-opacity:1;paint-order:markers stroke fill"/><rect ry="1.737" rx="3" y="37.904" x="50.291" height="1.737" width="2.806" style="fill:#ffffe9;fill-opacity:1;stroke:green;stroke-width:1;stroke-miterlimit:4;stroke-dasharray:none;stroke-opacity:1;paint-order:markers stroke fill"/><rect ry="1.737" rx="3" y="42.904" x="50.291" height="1.737" width="2.806" style="fill:#ffffe9;fill-opacity:1;stroke:green;stroke-width:1;stroke-miterlimit:4;stroke-dasharray:none;stroke-opacity:1;paint-order:markers stroke fill"/><rect ry="1.737" rx="3" y="32.904" x="50.291" height="1.737" width="2.806" style="fill:#ffffe9;fill-opacity:1;stroke:green;stroke-width:1;stroke-miterlimit:4;stroke-dasharray:none;stroke-opacity:1;paint-order:markers stroke fill"/></g></g></svg>