<svg xmlns="http://www.w3.org/2000/svg" width="21mm" height="28mm" viewBox="0 0 21 28"><g transform="translate(-41.194 -18.272)"><rect style="fill:#ffffe9;fill-opacity:1;stroke:#000;stroke-width:1;stroke-linecap:butt;stroke-linejoin:round;stroke-miterlimit:4;stroke-dasharray:none;stroke-opacity:1;paint-order:markers stroke fill" width="20" height="27" x="41.694" y="18.772" rx="3" ry="3"/><g transform="rotate(30 93.571 89.617)"><rect ry=".903" rx="2.12" y="51.824" x="22.119" height="11.042" width="2" style="fill:none;fill-opacity:1;stroke:green;stroke-width:.60000002;stroke-miterlimit:4;stroke-dasharray:none;stroke-opacity:1;paint-order:markers stroke fill"/><rect ry="1.737" rx="3" y="56.476" x="21.716" height="1.737" width="2.806" style="fill:#ffffe9;fill-opacity:1;stroke:green;stroke-width:1;stroke-miterlimit:4;stroke-dasharray:none;stroke-opacity:1;paint-order:markers stroke fill"/><rect ry="1.737" rx="3" y="61.476" x="21.716" height="1.737" width="2.806" style="fill:#ffffe9;fill-opacity:1;stroke:green;stroke-width:1;stroke-miterlimit:4;stroke-dasharray:none;stroke-opacity:1;paint-order:markers stroke fill"/><rect ry="1.737" rx="3" y="51.476" x="21.716" height="1.737" width="2.806" style="fill:#ffffe9;fill-opacity:1;stroke:green;stroke-width:1;stroke-miterlimit:4;stroke-dasharray:none;stroke-opacity:1;paint-order:markers stroke fill"/></g><g transform="rotate(-30 30.186 27.01)"><rect ry=".903" rx="2.12" y="33.252" x="50.694" height="11.042" width="2" style="fill:none;fill-opacity:1;stroke:green;stroke-width:.60000002;stroke-miterlimit:4;stroke-dasharray:none;stroke-opacity:1;paint-order:markers stroke fill"/><rect ry="1.737" rx="3" y="37.904" x="50.291" height="1.737" width="2.806" style="fill:#ffffe9;fill-opacity:1;stroke:green;stroke-width:1;stroke-miterlimit:4;stroke-dasharray:none;stroke-opacity:1;paint-order:markers stroke fill"/><rect ry="1.737" rx="3" y="42.904" x="50.291" height="1.737" width="2.806" style="fill:#ffffe9;fill-opacity:1;stroke:green;stroke-width:1;stroke-miterlimit:4;stroke-dasharray:none;stroke-opacity:1;paint-order:markers stroke fill"/><rect ry="1.737" rx="3" y="32.904" x="50.291" height="1.737" width="2.806" style="fill:#ffffe9;fill-opacity:1;stroke:green;stroke-width:1;stroke-miterlimit:4;stroke-dasharray:none;stroke-opacity:1;paint-order:markers stroke fill"/></g><g transform="rotate(30 74.813 106.644)"><rect ry=".903" rx="2.12" y="51.824" x="22.119" height="11.042" width="2" style="fill:none;fill-opacity:1;stroke:green;stroke-width:.60000002;stroke-miterlimit:4;stroke-dasharray:none;stroke-opacity:1;paint-order:markers stroke fill"/><rect ry="1.737" rx="3" y="56.476" x="21.716" height="1.737" width="2.806" style="fill:#ffffe9;fill-opacity:1;stroke:green;stroke-width:1;stroke-miterlimit:4;stroke-dasharray:none;stroke-opacity:1;paint-order:markers stroke fill"/><rect ry="1.737" rx="3" y="61.476" x="21.716" height="1.737" width="2.806" style="fill:#ffffe9;fill-opacity:1;stroke:green;stroke-width:1;stroke-miterlimit:4;stroke-dasharray:none;stroke-opacity:1;paint-order:markers stroke fill"/><rect ry="1.737" rx="3" y="51.476" x="21.716" height="1.737" width="2.806" style="fill:#ffffe9;fill-opacity:1;stroke:green;stroke-width:1;stroke-miterlimit:4;stroke-dasharray:none;stroke-opacity:1;paint-order:markers stroke fill"/></g><g transform="rotate(-30)"><rect ry=".903" rx="2.12" y="51.824" x="22.119" height="11.042" width="2" style="fill:none;fill-opacity:1;stroke:green;stroke-width:.6;stroke-miterlimit:4;stroke-dasharray:none;stroke-opacity:1;paint-order:markers stroke fill"/><rect ry="1.737" rx="3" y="56.476" x="21.716" height="1.737" width="2.806" style="fill:#ffffe9;fill-opacity:1;stroke:green;stroke-width:1;stroke-miterlimit:4;stroke-dasharray:none;stroke-opacity:1;paint-order:markers stroke fill"/><rect ry="1.737" rx="3" y="61.476" x="21.716" height="1.737" width="2.806" style="fill:#ffffe9;fill-opacity:1;stroke:green;stroke-width:1;stroke-miterlimit:4;stroke-dasharray:none;stroke-opacity:1;paint-order:markers stroke fill"/><rect ry="1.737" rx="3" y="51.476" x="21.716" height="1.737" width="2.806" style="fill:#ffffe9;fill-opacity:1;stroke:green;stroke-width:1;stroke-miterlimit:4;stroke-dasharray:none;stroke-opacity:1;paint-order:markers stroke fill"/></g><rect style="fill:#ffffe9;fill-opacity:1;stroke:green;stroke-width:.6;stroke-miterlimit:4;stroke-dasharray:none;stroke-opacity:1;paint-order:normal" width="2" height="11.042" x="45.194" y="33.252" rx="2.12" ry=".903"/><rect style="fill:#ffffe9;fill-opacity:1;stroke:green;stroke-width:1;stroke-miterlimit:4;stroke-dasharray:none;stroke-opacity:1;paint-order:markers stroke fill" width="2.806" height="1.737" x="44.791" y="37.904" rx="3" ry="1.737"/><rect style="fill:#ffffe9;fill-opacity:1;stroke:green;stroke-width:1;stroke-miterlimit:4;stroke-dasharray:none;stroke-opacity:1;paint-order:markers stroke fill" width="2.806" height="1.737" x="44.791" y="42.904" rx="3" ry="1.737"/><rect style="fill:#ffffe9;fill-opacity:1;stroke:green;stroke-width:1;stroke-miterlimit:4;stroke-dasharray:none;stroke-opacity:1;paint-order:markers stroke fill" width="2.806" height="1.737" x="44.791" y="32.904" rx="3" ry="1.737"/><rect style="fill:#ffffe9;fill-opacity:1;stroke:green;stroke-width:.6;stroke-miterlimit:4;stroke-dasharray:none;stroke-opacity:1;paint-order:normal" width="2" height="11.042" x="45.194" y="20.621" rx="2.12" ry=".903"/><rect style="fill:#ffffe9;fill-opacity:1;stroke:green;stroke-width:1;stroke-miterlimit:4;stroke-dasharray:none;stroke-opacity:1;paint-order:markers stroke fill" width="2.806" height="1.737" x="44.791" y="24.882" rx="3" ry="1.737"/><rect style="fill:#ffffe9;fill-opacity:1;stroke:green;stroke-width:1;stroke-miterlimit:4;stroke-dasharray:none;stroke-opacity:1;paint-order:markers stroke fill" width="2.806" height="1.737" x="44.791" y="29.882" rx="3" ry="1.737"/><rect style="fill:#ffffe9;fill-opacity:1;stroke:green;stroke-width:1;stroke-miterlimit:4;stroke-dasharray:none;stroke-opacity:1;paint-order:markers stroke fill" width="2.806" height="1.737" x="44.791" y="19.882" rx="3" ry="1.737"/><rect style="fill:#ffffe9;fill-opacity:1;stroke:green;stroke-width:.6;stroke-miterlimit:4;stroke-dasharray:none;stroke-opacity:1;paint-order:normal" width="2" height="11.042" x="56.194" y="33.252" rx="2.12" ry=".903"/><rect style="fill:#ffffe9;fill-opacity:1;stroke:green;stroke-width:1;stroke-miterlimit:4;stroke-dasharray:none;stroke-opacity:1;paint-order:markers stroke fill" width="2.806" height="1.737" x="55.791" y="37.904" rx="3" ry="1.737"/><rect style="fill:#ffffe9;fill-opacity:1;stroke:green;stroke-width:1;stroke-miterlimit:4;stroke-dasharray:none;stroke-opacity:1;paint-order:markers stroke fill" width="2.806" height="1.737" x="55.791" y="42.904" rx="3" ry="1.737"/><rect style="fill:#ffffe9;fill-opacity:1;stroke:green;stroke-width:1;stroke-miterlimit:4;stroke-dasharray:none;stroke-opacity:1;paint-order:markers stroke fill" width="2.806" height="1.737" x="55.791" y="32.904" rx="3" ry="1.737"/><rect ry=".903" rx="2.12" y="20.252" x="56.194" height="11.042" width="2" style="fill:#ffffe9;fill-opacity:1;stroke:green;stroke-width:.6;stroke-miterlimit:4;stroke-dasharray:none;stroke-opacity:1;paint-order:normal"/><rect ry="1.737" rx="3" y="24.904" x="55.791" height="1.737" width="2.806" style="fill:#ffffe9;fill-opacity:1;stroke:green;stroke-width:1;stroke-miterlimit:4;stroke-dasharray:none;stroke-opacity:1;paint-order:stroke fill markers"/><rect ry="1.737" rx="3" y="29.904" x="55.791" height="1.737" width="2.806" style="fill:#ffffe9;fill-opacity:1;stroke:green;stroke-width:1;stroke-miterlimit:4;stroke-dasharray:none;stroke-opacity:1;paint-order:stroke fill markers"/><rect ry="1.737" rx="3" y="19.904" x="55.791" height="1.737" width="2.806" style="fill:#ffffe9;fill-opacity:1;stroke:green;stroke-width:1;stroke-miterlimit:4;stroke-dasharray:none;stroke-opacity:1;paint-order:stroke fill markers"/></g></svg>