<svg xmlns="http://www.w3.org/2000/svg" width="21mm" height="28mm" viewBox="0 0 21 28"><g transform="translate(-41.194 -18.272)"><rect style="fill:#ffffe9;fill-opacity:1;stroke:#000;stroke-width:1;stroke-linecap:butt;stroke-linejoin:round;stroke-miterlimit:4;stroke-dasharray:none;stroke-opacity:1;paint-order:markers stroke fill" width="20" height="27" x="41.694" y="18.772" rx="3" ry="3"/><g transform="translate(-5.5 -8.527)"><rect ry=".537" rx="2.145" y="28.989" x="50.682" height="6.566" width="2.024" style="fill:none;fill-opacity:1;stroke:green;stroke-width:.46546087;stroke-miterlimit:4;stroke-dasharray:none;stroke-opacity:1;paint-order:markers stroke fill"/><rect ry="1.033" rx="3.036" y="31.756" x="50.274" height="1.033" width="2.84" style="fill:#ffffe9;fill-opacity:1;stroke:green;stroke-width:.7757681;stroke-miterlimit:4;stroke-dasharray:none;stroke-opacity:1;paint-order:markers stroke fill"/><rect ry="1.033" rx="3.036" y="34.729" x="50.274" height="1.033" width="2.84" style="fill:#ffffe9;fill-opacity:1;stroke:green;stroke-width:.7757681;stroke-miterlimit:4;stroke-dasharray:none;stroke-opacity:1;paint-order:markers stroke fill"/><rect ry="1.033" rx="3.036" y="28.783" x="50.274" height="1.033" width="2.84" style="fill:#ffffe9;fill-opacity:1;stroke:green;stroke-width:.7757681;stroke-miterlimit:4;stroke-dasharray:none;stroke-opacity:1;paint-order:markers stroke fill"/></g><g transform="translate(5.5 8.527)"><rect ry=".537" rx="2.145" y="28.989" x="50.682" height="6.566" width="2.024" style="fill:none;fill-opacity:1;stroke:green;stroke-width:.46546087;stroke-miterlimit:4;stroke-dasharray:none;stroke-opacity:1;paint-order:markers stroke fill"/><rect ry="1.033" rx="3.036" y="31.756" x="50.274" height="1.033" width="2.84" style="fill:#ffffe9;fill-opacity:1;stroke:green;stroke-width:.7757681;stroke-miterlimit:4;stroke-dasharray:none;stroke-opacity:1;paint-order:markers stroke fill"/><rect ry="1.033" rx="3.036" y="34.729" x="50.274" height="1.033" width="2.84" style="fill:#ffffe9;fill-opacity:1;stroke:green;stroke-width:.7757681;stroke-miterlimit:4;stroke-dasharray:none;stroke-opacity:1;paint-order:markers stroke fill"/><rect ry="1.033" rx="3.036" y="28.783" x="50.274" height="1.033" width="2.84" style="fill:#ffffe9;fill-opacity:1;stroke:green;stroke-width:.7757681;stroke-miterlimit:4;stroke-dasharray:none;stroke-opacity:1;paint-order:markers stroke fill"/></g><g transform="translate(5.5 -8.527)"><rect ry=".537" rx="2.145" y="28.989" x="50.682" height="6.566" width="2.024" style="fill:none;fill-opacity:1;stroke:green;stroke-width:.46546087;stroke-miterlimit:4;stroke-dasharray:none;stroke-opacity:1;paint-order:markers stroke fill"/><rect ry="1.033" rx="3.036" y="31.756" x="50.274" height="1.033" width="2.84" style="fill:#ffffe9;fill-opacity:1;stroke:green;stroke-width:.7757681;stroke-miterlimit:4;stroke-dasharray:none;stroke-opacity:1;paint-order:markers stroke fill"/><rect ry="1.033" rx="3.036" y="34.729" x="50.274" height="1.033" width="2.84" style="fill:#ffffe9;fill-opacity:1;stroke:green;stroke-width:.7757681;stroke-miterlimit:4;stroke-dasharray:none;stroke-opacity:1;paint-order:markers stroke fill"/><rect ry="1.033" rx="3.036" y="28.783" x="50.274" height="1.033" width="2.84" style="fill:#ffffe9;fill-opacity:1;stroke:green;stroke-width:.7757681;stroke-miterlimit:4;stroke-dasharray:none;stroke-opacity:1;paint-order:markers stroke fill"/></g><g transform="translate(-5.5 8.527)"><rect ry=".537" rx="2.145" y="28.989" x="50.682" height="6.566" width="2.024" style="fill:none;fill-opacity:1;stroke:green;stroke-width:.46546087;stroke-miterlimit:4;stroke-dasharray:none;stroke-opacity:1;paint-order:markers stroke fill"/><rect ry="1.033" rx="3.036" y="31.756" x="50.274" height="1.033" width="2.84" style="fill:#ffffe9;fill-opacity:1;stroke:green;stroke-width:.7757681;stroke-miterlimit:4;stroke-dasharray:none;stroke-opacity:1;paint-order:markers stroke fill"/><rect ry="1.033" rx="3.036" y="34.729" x="50.274" height="1.033" width="2.84" style="fill:#ffffe9;fill-opacity:1;stroke:green;stroke-width:.7757681;stroke-miterlimit:4;stroke-dasharray:none;stroke-opacity:1;paint-order:markers stroke fill"/><rect ry="1.033" rx="3.036" y="28.783" x="50.274" height="1.033" width="2.84" style="fill:#ffffe9;fill-opacity:1;stroke:green;stroke-width:.7757681;stroke-miterlimit:4;stroke-dasharray:none;stroke-opacity:1;paint-order:markers stroke fill"/></g><g transform="translate(5.5)"><rect ry=".537" rx="2.145" y="28.989" x="50.682" height="6.566" width="2.024" style="fill:none;fill-opacity:1;stroke:green;stroke-width:.46546087;stroke-miterlimit:4;stroke-dasharray:none;stroke-opacity:1;paint-order:markers stroke fill"/><rect ry="1.033" rx="3.036" y="31.756" x="50.274" height="1.033" width="2.84" style="fill:#ffffe9;fill-opacity:1;stroke:green;stroke-width:.7757681;stroke-miterlimit:4;stroke-dasharray:none;stroke-opacity:1;paint-order:markers stroke fill"/><rect ry="1.033" rx="3.036" y="34.729" x="50.274" height="1.033" width="2.84" style="fill:#ffffe9;fill-opacity:1;stroke:green;stroke-width:.7757681;stroke-miterlimit:4;stroke-dasharray:none;stroke-opacity:1;paint-order:markers stroke fill"/><rect ry="1.033" rx="3.036" y="28.783" x="50.274" height="1.033" width="2.84" style="fill:#ffffe9;fill-opacity:1;stroke:green;stroke-width:.7757681;stroke-miterlimit:4;stroke-dasharray:none;stroke-opacity:1;paint-order:markers stroke fill"/></g><g transform="translate(-5.5)"><rect ry=".537" rx="2.145" y="28.989" x="50.682" height="6.566" width="2.024" style="fill:none;fill-opacity:1;stroke:green;stroke-width:.46546087;stroke-miterlimit:4;stroke-dasharray:none;stroke-opacity:1;paint-order:markers stroke fill"/><rect ry="1.033" rx="3.036" y="31.756" x="50.274" height="1.033" width="2.84" style="fill:#ffffe9;fill-opacity:1;stroke:green;stroke-width:.7757681;stroke-miterlimit:4;stroke-dasharray:none;stroke-opacity:1;paint-order:markers stroke fill"/><rect ry="1.033" rx="3.036" y="34.729" x="50.274" height="1.033" width="2.84" style="fill:#ffffe9;fill-opacity:1;stroke:green;stroke-width:.7757681;stroke-miterlimit:4;stroke-dasharray:none;stroke-opacity:1;paint-order:markers stroke fill"/><rect ry="1.033" rx="3.036" y="28.783" x="50.274" height="1.033" width="2.84" style="fill:#ffffe9;fill-opacity:1;stroke:green;stroke-width:.7757681;stroke-miterlimit:4;stroke-dasharray:none;stroke-opacity:1;paint-order:markers stroke fill"/></g><g transform="translate(0 -8.527)" style="stroke:#e40000;stroke-opacity:1"><rect ry=".537" rx="2.145" y="28.989" x="50.682" height="6.566" width="2.024" style="fill:none;fill-opacity:1;stroke:#e40000;stroke-width:.46546087;stroke-miterlimit:4;stroke-dasharray:none;stroke-opacity:1;paint-order:markers stroke fill"/><rect ry="1.033" rx="3.036" y="31.756" x="50.274" height="1.033" width="2.84" style="fill:#ffffe9;fill-opacity:1;stroke:#e40000;stroke-width:.7757681;stroke-miterlimit:4;stroke-dasharray:none;stroke-opacity:1;paint-order:markers stroke fill"/><rect ry="1.033" rx="3.036" y="34.729" x="50.274" height="1.033" width="2.84" style="fill:#ffffe9;fill-opacity:1;stroke:#e40000;stroke-width:.7757681;stroke-miterlimit:4;stroke-dasharray:none;stroke-opacity:1;paint-order:markers stroke fill"/><rect ry="1.033" rx="3.036" y="28.783" x="50.274" height="1.033" width="2.84" style="fill:#ffffe9;fill-opacity:1;stroke:#e40000;stroke-width:.7757681;stroke-miterlimit:4;stroke-dasharray:none;stroke-opacity:1;paint-order:markers stroke fill"/></g><g style="stroke:#e40000;stroke-opacity:1"><rect ry=".537" rx="2.145" y="28.989" x="50.682" height="6.566" width="2.024" style="fill:none;fill-opacity:1;stroke:#e40000;stroke-width:.46546087;stroke-miterlimit:4;stroke-dasharray:none;stroke-opacity:1;paint-order:markers stroke fill"/><rect ry="1.033" rx="3.036" y="31.756" x="50.274" height="1.033" width="2.84" style="fill:#ffffe9;fill-opacity:1;stroke:#e40000;stroke-width:.7757681;stroke-miterlimit:4;stroke-dasharray:none;stroke-opacity:1;paint-order:markers stroke fill"/><rect ry="1.033" rx="3.036" y="34.729" x="50.274" height="1.033" width="2.84" style="fill:#ffffe9;fill-opacity:1;stroke:#e40000;stroke-width:.7757681;stroke-miterlimit:4;stroke-dasharray:none;stroke-opacity:1;paint-order:markers stroke fill"/><rect ry="1.033" rx="3.036" y="28.783" x="50.274" height="1.033" width="2.84" style="fill:#ffffe9;fill-opacity:1;stroke:#e40000;stroke-width:.7757681;stroke-miterlimit:4;stroke-dasharray:none;stroke-opacity:1;paint-order:markers stroke fill"/></g><g transform="translate(0 8.527)" style="stroke:#e40000;stroke-opacity:1"><rect ry=".537" rx="2.145" y="28.989" x="50.682" height="6.566" width="2.024" style="fill:none;fill-opacity:1;stroke:#e40000;stroke-width:.46546087;stroke-miterlimit:4;stroke-dasharray:none;stroke-opacity:1;paint-order:markers stroke fill"/><rect ry="1.033" rx="3.036" y="31.756" x="50.274" height="1.033" width="2.84" style="fill:#ffffe9;fill-opacity:1;stroke:#e40000;stroke-width:.7757681;stroke-miterlimit:4;stroke-dasharray:none;stroke-opacity:1;paint-order:markers stroke fill"/><rect ry="1.033" rx="3.036" y="34.729" x="50.274" height="1.033" width="2.84" style="fill:#ffffe9;fill-opacity:1;stroke:#e40000;stroke-width:.7757681;stroke-miterlimit:4;stroke-dasharray:none;stroke-opacity:1;paint-order:markers stroke fill"/><rect ry="1.033" rx="3.036" y="28.783" x="50.274" height="1.033" width="2.84" style="fill:#ffffe9;fill-opacity:1;stroke:#e40000;stroke-width:.7757681;stroke-miterlimit:4;stroke-dasharray:none;stroke-opacity:1;paint-order:markers stroke fill"/></g></g></svg>